
        <svg xmlns="http://www.w3.org/2000/svg" xmlns:xlink="http://www.w3.org/1999/xlink" version="1.1" width="3166.2049861495843" height="1106.467322453752" viewBox="0 0 3166.2049861495843 1106.467322453752">
			
			<g transform="scale(8.310249307479225) translate(10, 10)">
				<defs id="SvgjsDefs11254"><linearGradient id="SvgjsLinearGradient11265"><stop id="SvgjsStop11266" stop-color="#616161" offset="0"/><stop id="SvgjsStop11267" stop-color="#e6e7e8" offset="0.5"/><stop id="SvgjsStop11268" stop-color="#616161" offset="1"/></linearGradient><linearGradient id="SvgjsLinearGradient11269"><stop id="SvgjsStop11270" stop-color="#616161" offset="0"/><stop id="SvgjsStop11271" stop-color="#e6e7e8" offset="0.5"/><stop id="SvgjsStop11272" stop-color="#616161" offset="1"/></linearGradient><linearGradient id="SvgjsLinearGradient11273"><stop id="SvgjsStop11274" stop-color="#616161" offset="0"/><stop id="SvgjsStop11275" stop-color="#e6e7e8" offset="0.5"/><stop id="SvgjsStop11276" stop-color="#616161" offset="1"/></linearGradient><linearGradient id="SvgjsLinearGradient11277"><stop id="SvgjsStop11278" stop-color="#616161" offset="0"/><stop id="SvgjsStop11279" stop-color="#e6e7e8" offset="0.5"/><stop id="SvgjsStop11280" stop-color="#616161" offset="1"/></linearGradient><linearGradient id="SvgjsLinearGradient11281"><stop id="SvgjsStop11282" stop-color="#616161" offset="0"/><stop id="SvgjsStop11283" stop-color="#e6e7e8" offset="0.5"/><stop id="SvgjsStop11284" stop-color="#616161" offset="1"/></linearGradient></defs><g id="SvgjsG11255" featureKey="symbolGroupContainer" transform="matrix(1.0682842747973513,0,0,1.0682842747973513,0.026800088255465777,0.000009048635495402714)" fill="#000"><path xmlns="http://www.w3.org/2000/svg" d="M101.3 44.9l-.5-2.1a48.1 48.1 0 0 0-1.3-6.1c-.3-1.1-.7-2.2-1.1-3.3l-.6-1.6-.7-1.6A50.9 50.9 0 0 0 78.7 8.5a50.5 50.5 0 0 0-20.6-8 55.7 55.7 0 0 0-7.4-.5A50.7 50.7 0 0 0 4.3 30.2l-.7 1.6-.6 1.6c-.4 1.1-.8 2.2-1.1 3.3a50.1 50.1 0 0 0-1.4 6.7 51.4 51.4 0 0 0-.2 13.1 53 53 0 0 0 1.4 7.3l.3 1.5a50.6 50.6 0 0 0 5 13.9 52.4 52.4 0 0 0 4 6.3 55.9 55.9 0 0 0 4.9 5.6A50.7 50.7 0 0 0 70 102.5l1.6-.7 1.6-.7 3.1-1.6a50.1 50.1 0 0 0 5.7-3.6 51.5 51.5 0 0 0 9.4-9.1 50.6 50.6 0 0 0 6.5-10.6 51.7 51.7 0 0 0 3.5-11.1 51.1 51.1 0 0 0-.1-20.2zm-.8-1.5a52.2 52.2 0 0 1 .2 13.1 50.3 50.3 0 0 1-2.9 12 51.5 51.5 0 0 1-5.3 10.3l-.3.4a45.4 45.4 0 0 0 2.8-5.1c.5-1 .8-2 1.2-3s.7-2 1-3a46.3 46.3 0 0 0 1.2-6.1c.1-1 .3-2 .3-3.1s.1-1 .1-1.5v-1.5c0-1 0-2-.1-3s-.1-2-.3-3a46.5 46.5 0 0 0-2.7-11.1 47.5 47.5 0 0 0-4.9-9.5 47 47 0 0 0-10.2-10.9 46.8 46.8 0 0 0-53.8-7.1l4.1-2.1a51.6 51.6 0 0 1 11-3.6 50.9 50.9 0 0 1 20.1.2 50 50 0 0 1 14.6 5.5 48.2 48.2 0 0 1 8.3 5.7l2 1.8.7.6.6.7 1.8 2a48.1 48.1 0 0 1 5.8 8.2 50.6 50.6 0 0 1 4.1 9.7c.3 1.1.5 2.3.6 3.4zM2.3 65.2A50.7 50.7 0 0 1 3 42.3l-.3 1.4A47 47 0 0 0 5 69.8c.4 1 .8 2 1.3 3s.9 1.9 1.5 2.8a46.3 46.3 0 0 0 3.4 5.3l1.9 2.4 1 1.2 1 1.1 2.2 2.1 2.3 1.9 2.5 1.8a45.4 45.4 0 0 0 4.1 3 47.3 47.3 0 0 0 6.9 3.7A49.3 49.3 0 0 1 23 93 51 51 0 0 1 8.7 78.8a51.6 51.6 0 0 1-5.3-10.3q-.5-1.4-1-2.9zm75.2 28.2a45.9 45.9 0 0 1-12 5.6 47.2 47.2 0 0 1-6.6 1.4 50.5 50.5 0 0 1-6.7.5A45.7 45.7 0 0 1 35 97.5l4.5 1.1a47.1 47.1 0 0 0 18.6-.2 47.4 47.4 0 0 0 13.4-5.1A44.2 44.2 0 0 0 79 88l1.8-1.6.6-.6.6-.6 1.7-1.8a44.3 44.3 0 0 0 5.4-7.5 47.8 47.8 0 0 0 5.2-13.4 47.2 47.2 0 0 0 .3-18.7 46 46 0 0 0-9.1-20.1c-.9-1.1-1.8-2.2-2.8-3.3a46.2 46.2 0 0 1 7.9 9.1 47.1 47.1 0 0 1 4.7 9.5 45.9 45.9 0 0 1 2.6 11c.1 1 .2 1.9.2 2.9s.1 2 0 3v1.5c0 .5-.1 1-.1 1.5s-.2 2-.3 3a45.5 45.5 0 0 1-1.3 6c-.3 1-.6 2-1 3s-.7 2-1.2 2.9a46 46 0 0 1-16.7 19.6zm-9.3-81.6l2.5 1.3a44.9 44.9 0 0 1 5.1 3.3l2.3 1.9 1.1 1 1.1 1 2.1 2.1 1.9 2.2a45.5 45.5 0 0 1 5.9 9.5 48.1 48.1 0 0 1 3.3 10 46.3 46.3 0 0 1 .1 18.3 45.4 45.4 0 0 1-10.1 20.9l-1.6 1.8-.6.6-.6.6-1.8 1.6a44.1 44.1 0 0 1-7.5 5.3 44.6 44.6 0 0 1-13.4 5 46.4 46.4 0 0 1-18.4 0 47 47 0 0 1-9.4-3l-3.2-2a46.2 46.2 0 0 1-16.5-19.5c-.5-.9-.8-1.9-1.2-2.9s-.7-2-.9-3a45 45 0 0 1-1.3-6c-.1-1-.3-2-.3-3s-.1-1-.1-1.5v-4.4c0-1 .1-1.9.2-2.9a45.6 45.6 0 0 1 2.5-10.9 48.1 48.1 0 0 1 4.7-9.4 46.3 46.3 0 0 1 12.9-13 45.4 45.4 0 0 1 22-7.6h6.5a44 44 0 0 1 9.1 1.6zm-3.6-1.3a44.2 44.2 0 0 0-9.1-1.6h-6.6a44.2 44.2 0 0 0-9.1 1.5 47.9 47.9 0 0 0-13.1 5.8 47.2 47.2 0 0 0-13.4 13 46.6 46.6 0 0 0 3.2 56.7l-.8-.8-1-1.1-1-1.1-1.9-2.4a45.4 45.4 0 0 1-3.3-5.2c-.5-.9-1-1.8-1.4-2.8s-.9-1.9-1.2-2.9a45.9 45.9 0 0 1 2.3-38.2 47.5 47.5 0 0 1 3.6-5.7 50.6 50.6 0 0 1 4.4-5.1A45.6 45.6 0 0 1 39.6 8.3 46.2 46.2 0 0 1 65 10.4l1.5.6zM.5 56.5a51.5 51.5 0 0 1 .2-13.1 50 50 0 0 1 1.4-6.6c.3-1.1.7-2.2 1.1-3.3l.6-1.6.7-1.6a50.4 50.4 0 0 1 92.2 0l.7 1.6.6 1.6c.4 1.1.8 2.2 1 3.3s.4 1.5.6 2.3a50.7 50.7 0 0 0-3.9-8.8 48.3 48.3 0 0 0-5.8-8.2l-1.8-2-.6-.7-.7-.6-2-1.8a48.3 48.3 0 0 0-8.2-5.8 50.1 50.1 0 0 0-14.5-5.6 51.2 51.2 0 0 0-20.2-.1A51.8 51.8 0 0 0 30.8 9 50.5 50.5 0 0 0 7.3 30.7c-.6 1-1.1 2-1.6 3.1L5 35.3l-.7 1.6a51 51 0 0 0-2.9 25 54 54 0 0 1-.9-5.4zm100.8 8.6a51.5 51.5 0 0 1-3.6 11 50.4 50.4 0 0 1-6.5 10.6 51.5 51.5 0 0 1-9.4 9.1 50 50 0 0 1-5.7 3.7l-3 1.5-1.6.7-1.6.7A50.5 50.5 0 0 1 2.7 67.2l.5 1.4a51.8 51.8 0 0 0 5.4 10.3 51.1 51.1 0 0 0 14.3 14.2 49.6 49.6 0 0 0 11.2 5.5l4.4 1.6a48.7 48.7 0 0 0 6.7 1.5 51.5 51.5 0 0 0 6.9.5 46.8 46.8 0 0 0 38.2-19.9c.9-1.1 1.7-2.2 2.5-3.4a51.8 51.8 0 0 0 5.3-10.3 50.6 50.6 0 0 0 2.9-24.7l.2 1a51 51 0 0 1 .1 20.2z"/></g><g id="SvgjsG11256" featureKey="symbolFeature-0" transform="matrix(0.8905851725737848,0,0,0.8905851725737848,10.025446237039251,12.203563101688367)" fill="#000"><path xmlns="http://www.w3.org/2000/svg" d="M29.5,25.5c2.5,0,4.6-2.1,4.6-4.6s-2.1-4.6-4.6-4.6c-2.5,0-4.6,2.1-4.6,4.6S27,25.5,29.5,25.5z M27,58  c0,0.7,0.6,1.3,1.3,1.3c0.7,0,1.3-0.6,1.3-1.3s-0.6-1.3-1.3-1.3C27.6,56.7,27,57.3,27,58z M36.2,31.3c1.1,0,1.9-0.9,1.9-1.9  c0-1.1-0.9-1.9-1.9-1.9c-1.1,0-1.9,0.9-1.9,1.9C34.3,30.4,35.1,31.3,36.2,31.3z M21.1,48.6c2.5,0,4.6-2.1,4.6-4.6  c0-2.5-2.1-4.6-4.6-4.6s-4.6,2.1-4.6,4.6C16.6,46.5,18.6,48.6,21.1,48.6z M14.5,37.8c1.1,0,1.9-0.9,1.9-1.9c0-1.1-0.9-1.9-1.9-1.9  c-1.1,0-1.9,0.9-1.9,1.9C12.6,37,13.4,37.8,14.5,37.8z M13.8,42c0-0.7-0.6-1.3-1.3-1.3c-0.7,0-1.3,0.6-1.3,1.3s0.6,1.3,1.3,1.3  C13.2,43.3,13.8,42.7,13.8,42z M19.9,31.2c1.8,0,3.2-1.4,3.2-3.2s-1.4-3.2-3.2-3.2c-1.8,0-3.2,1.4-3.2,3.2S18.1,31.2,19.9,31.2z   M58.8,13.6c0.7,0,1.3-0.6,1.3-1.3c0-0.7-0.6-1.3-1.3-1.3c-0.7,0-1.3,0.6-1.3,1.3C57.5,13,58.1,13.6,58.8,13.6z M23.8,57.5  c0-3.1-2.5-5.6-5.6-5.6c-3.1,0-5.6,2.5-5.6,5.6s2.5,5.6,5.6,5.6C21.3,63.1,23.8,60.6,23.8,57.5z M79.9,33.9c2.5,0,4.6-2.1,4.6-4.6  s-2.1-4.6-4.6-4.6s-4.6,2.1-4.6,4.6S77.3,33.9,79.9,33.9z M69.6,65.5c0,1.8,1.4,3.2,3.2,3.2c1.8,0,3.2-1.4,3.2-3.2s-1.4-3.2-3.2-3.2  C71,62.3,69.6,63.7,69.6,65.5z M72.8,22.9c1.8,0,3.2-1.4,3.2-3.2c0-1.8-1.4-3.2-3.2-3.2c-1.8,0-3.2,1.4-3.2,3.2  C69.6,21.5,71,22.9,72.8,22.9z M65.7,31.2c1.8,0,3.2-1.4,3.2-3.2s-1.4-3.2-3.2-3.2c-1.8,0-3.2,1.4-3.2,3.2S63.9,31.2,65.7,31.2z   M77.2,42.5c0,3.1,2.5,5.6,5.6,5.6c3.1,0,5.6-2.5,5.6-5.6s-2.5-5.6-5.6-5.6C79.7,36.9,77.2,39.4,77.2,42.5z M74,42  c0-0.7-0.6-1.3-1.3-1.3c-0.7,0-1.3,0.6-1.3,1.3s0.6,1.3,1.3,1.3C73.4,43.3,74,42.7,74,42z M64.8,16.1c1.1,0,1.9-0.9,1.9-1.9  s-0.9-1.9-1.9-1.9c-1.1,0-1.9,0.9-1.9,1.9S63.8,16.1,64.8,16.1z M70.8,37.8c1.1,0,1.9-0.9,1.9-1.9c0-1.1-0.9-1.9-1.9-1.9  s-1.9,0.9-1.9,1.9C68.9,37,69.8,37.8,70.8,37.8z M31.4,34.5c0-1.8-1.4-3.2-3.2-3.2c-1.8,0-3.2,1.4-3.2,3.2s1.4,3.2,3.2,3.2  C30,37.7,31.4,36.3,31.4,34.5z M64.8,68.7c-1.1,0-1.9,0.9-1.9,1.9c0,1.1,0.9,1.9,1.9,1.9c1.1,0,1.9-0.9,1.9-1.9  C66.7,69.6,65.9,68.7,64.8,68.7z M58.3,76.4c-3.1,0-5.6,2.5-5.6,5.6s2.5,5.6,5.6,5.6c3.1,0,5.6-2.5,5.6-5.6S61.4,76.4,58.3,76.4z   M71.5,74.5c-2.5,0-4.6,2.1-4.6,4.6s2.1,4.6,4.6,4.6c2.5,0,4.6-2.1,4.6-4.6S74,74.5,71.5,74.5z M57.5,72.5c0,0.7,0.6,1.3,1.3,1.3  c0.7,0,1.3-0.6,1.3-1.3c0-0.7-0.6-1.3-1.3-1.3C58.1,71.3,57.5,71.8,57.5,72.5z M88.5,56.7c-0.7,0-1.3,0.6-1.3,1.3s0.6,1.3,1.3,1.3  c0.7,0,1.3-0.6,1.3-1.3S89.1,56.7,88.5,56.7z M86.5,62.2c-1.1,0-1.9,0.9-1.9,1.9c0,1.1,0.9,1.9,1.9,1.9c1.1,0,1.9-0.9,1.9-1.9  C88.4,63,87.6,62.2,86.5,62.2z M56.2,25.5c2.5,0,4.6-2.1,4.6-4.6s-2.1-4.6-4.6-4.6s-4.6,2.1-4.6,4.6S53.7,25.5,56.2,25.5z   M79.9,51.4c-2.5,0-4.6,2.1-4.6,4.6c0,2.5,2.1,4.6,4.6,4.6s4.6-2.1,4.6-4.6C84.4,53.5,82.4,51.4,79.9,51.4z M21.1,66.1  c-2.5,0-4.6,2.1-4.6,4.6s2.1,4.6,4.6,4.6s4.6-2.1,4.6-4.6S23.7,66.1,21.1,66.1z M81.1,68.8c-1.8,0-3.2,1.4-3.2,3.2s1.4,3.2,3.2,3.2  c1.8,0,3.2-1.4,3.2-3.2S82.9,68.8,81.1,68.8z M30.2,62.2c-1.1,0-1.9,0.9-1.9,1.9c0,1.1,0.9,1.9,1.9,1.9s1.9-0.9,1.9-1.9  C32.1,63,31.2,62.2,30.2,62.2z M35.3,68.8c-1.8,0-3.2,1.4-3.2,3.2s1.4,3.2,3.2,3.2c1.8,0,3.2-1.4,3.2-3.2S37.1,68.8,35.3,68.8z   M36.2,83.9c-1.1,0-1.9,0.9-1.9,1.9s0.9,1.9,1.9,1.9c1.1,0,1.9-0.9,1.9-1.9S37.2,83.9,36.2,83.9z M28.2,77.1c-1.8,0-3.2,1.4-3.2,3.2  c0,1.8,1.4,3.2,3.2,3.2c1.8,0,3.2-1.4,3.2-3.2C31.4,78.5,30,77.1,28.2,77.1z M41,27.5c0,0.7,0.6,1.3,1.3,1.3c0.7,0,1.3-0.6,1.3-1.3  c0-0.7-0.6-1.3-1.3-1.3C41.5,26.2,41,26.8,41,27.5z M48.3,17.9c0-3.1-2.5-5.6-5.6-5.6c-3.1,0-5.6,2.5-5.6,5.6s2.5,5.6,5.6,5.6  C45.8,23.6,48.3,21.1,48.3,17.9z M42.2,86.4c-0.7,0-1.3,0.6-1.3,1.3c0,0.7,0.6,1.3,1.3,1.3c0.7,0,1.3-0.6,1.3-1.3  C43.5,87,42.9,86.4,42.2,86.4z M44.8,74.5c-2.5,0-4.6,2.1-4.6,4.6s2.1,4.6,4.6,4.6s4.6-2.1,4.6-4.6S47.3,74.5,44.8,74.5z"/></g><g id="SvgjsG11257" featureKey="nameFeature-0" transform="matrix(0.8128363045715097,0,0,0.8128363045715097,125.42352095754835,18.74158637030687)" fill="#000"><path d="M16.8 28.04 l-8.04 11.96 l-4.36 0 l0 -29.84 l4.36 0 l0 22.28 l15.16 -22.28 l5.24 0 l-9.8 14.04 l5.36 8.04 q1.28 1.92 2.52 2.72 q1 0.64 2.12 0.64 l1.24 -0.04 l0 4.44 l-0.8 0 q-2 0.04 -2.92 -0.16 q-1.48 -0.24 -2.72 -1.2 q-1.4 -1.12 -2.84 -3.36 z M47.308 33.12 l0.56 0 l-4.04 -7.68 l-4.92 9.48 q1.36 -0.72 3.08 -1.16 q2.48 -0.64 5.32 -0.64 z M41.708 21.4 l-1.36 -2.6 l4.44 0 l11.2 21.2 l-4.52 0 l-1.64 -3.12 l-2.48 0 q-2.36 0 -5 0.56 q-2.24 0.44 -4.08 1.2 q-1.68 0.64 -2.04 1.12 l-0.12 0.24 l-4.32 0 z M65.536 14.559999999999999 l0 21.08 l6.76 0 q2.8 0 5.04 -1.44 q2.12 -1.4 3.32 -3.76 t1.2 -5.16 q0 -2.92 -1.14 -5.36 t-3.26 -3.88 q-2.28 -1.48 -5.24 -1.48 l-6.68 0 z M58.896 14.559999999999999 l-1.92 -4.4 l15.2 0 q3.96 0 7.24 2.04 q3.16 1.96 5 5.36 t1.84 7.4 q0 3 -1.18 5.94 t-3.26 5.14 q-2 2.16 -4.28 3.08 q-2.2 0.88 -5.24 0.88 l-11.04 0 l0 -25.44 l-2.36 0 z M95.124 32.56 l0 3.28 l13 0 l0 4.16 l-17.08 0 l0 -20.72 l16.32 0 l0 4.12 l-12.24 0 l0 5.04 q1.24 -0.72 3 -1 q1.36 -0.2 3.48 -0.2 l3.04 0 l0 4.12 l-3.04 0 q-2.76 0 -4 0.24 q-1.08 0.2 -2.48 0.96 z M129.392 21.2 l-2.76 3.2 q-2.2 -1.8 -6.16 -1.8 q-1.56 0 -2.88 0.68 t-1.32 1.56 q0 0.72 0.28 1.08 q0.36 0.52 1.28 0.72 q1.04 0.28 2.96 0.28 q4.16 0 6.56 0.92 q2.12 0.76 2.96 2.28 q0.68 1.24 0.68 3.16 q0 3.6 -3 5.52 q-2.84 1.84 -7.48 1.84 q-2.68 0 -5.18 -1.18 t-4.22 -3.22 l2.96 -3 l0.36 0.4 q0.84 0.88 1.36 1.36 q0.92 0.76 1.92 1.16 q1.24 0.48 2.8 0.48 q2.88 0 4.64 -0.88 t1.76 -2.48 q0 -1.36 -1.56 -1.84 q-1.4 -0.44 -4.84 -0.44 q-4 0 -6.12 -1.4 q-2.44 -1.52 -2.44 -4.76 q0 -1.84 1.2 -3.28 q1.12 -1.4 3.08 -2.18 t4.28 -0.78 q2.48 0 4.44 0.52 q2.32 0.6 4.44 2.08 z M139.86 40 l-4.08 0 l0 -20.72 l4.08 0 l0 20.72 z M165.76800000000003 28.2 l0 9.48 q-1.68 1.44 -3.9 2.2 t-4.62 0.76 q-3.2 0 -5.96 -1.32 q-2.84 -1.36 -4.48 -3.76 q-1.76 -2.64 -1.76 -6 t1.8 -5.96 q1.64 -2.4 4.52 -3.72 q2.76 -1.28 5.92 -1.28 q2.32 0 4.48 0.66 t3.84 1.94 l-2.76 3.2 q-1.16 -0.8 -2.62 -1.22 t-2.94 -0.42 q-2.08 0 -3.84 0.76 q-1.84 0.76 -2.88 2.24 q-1.16 1.64 -1.16 3.88 t1.16 3.84 q1.08 1.48 2.96 2.28 q1.72 0.72 3.8 0.72 q2.32 0 4.36 -1.08 l0 -3.32 l-2.12 0 l-1.76 -3.88 l7.96 0 z M168.95600000000002 19.28 l5.16 0 l12.52 14.4 l0 -14.4 l4.12 0 l0 20.72 l-4.12 0 l-11.52 -13.48 l0 13.48 l-4.12 0 l0 -17.64 z M201.86400000000003 14.559999999999999 l0 9.12 q1.24 -0.72 2.8 -1 q1.16 -0.2 2.88 -0.2 l5.12 0 q2.08 0 3.26 -1.04 t1.18 -3.08 q0 -3.8 -4.44 -3.8 l-10.8 0 z M201.86400000000003 28.119999999999997 l0 7.52 l11.24 0 q1.32 0 2.52 -0.48 q1.32 -0.48 2.08 -1.4 q0.88 -1.08 0.88 -2.48 q0 -2.4 -1.88 -3.48 q-1.48 -0.88 -4.04 -0.88 l-5.12 0 q-3.44 0 -5.68 1.2 z M222.90400000000002 31.84 q0 2.8 -1.56 4.76 q-1.36 1.72 -3.84 2.6 q-2.2 0.8 -4.84 0.8 l-15.12 0 l0 -29.84 l15.12 0 q2.56 0 4.54 0.96 t3.1 2.76 q1.16 1.88 1.16 4.44 q0 1.96 -0.7 3.5 t-1.98 2.38 q1.72 0.8 2.84 2.64 q1.28 2.12 1.28 5 z M232.05200000000002 28.04 l0 7.6 l18.4 0 l0 4.36 l-22.76 0 l0 -29.84 l21 0 l0 4.4 l-16.64 0 l0 9.04 q1.24 -0.72 2.76 -0.96 q1.12 -0.2 2.88 -0.2 l6.52 0 l0 4.44 l-6.52 0 q-1.64 0 -2.88 0.2 q-1.52 0.28 -2.76 0.96 z"/></g><g id="SvgjsG11258" featureKey="sloganFeature-0" transform="matrix(0.44458131550214824,0,0,0.44458131550214824,128.24421195443995,59.33251253097289)" fill="#000"><path d="M13.22 6 c0.18 0 0.3 0.12 0.3 0.3 l0 13.4 c0 0.18 -0.12 0.3 -0.3 0.3 l-2.64 0 c-0.18 0 -0.3 -0.12 -0.3 -0.3 l0 -5.33 l-5.35 0 l0 5.33 c0 0.18 -0.12 0.3 -0.3 0.3 l-2.63 0 c-0.18 0 -0.3 -0.12 -0.3 -0.3 l0 -13.4 c0 -0.18 0.12 -0.3 0.3 -0.3 l2.63 0 c0.18 0 0.3 0.12 0.3 0.3 l0 5.23 l5.35 0 l0 -5.23 c0 -0.18 0.12 -0.3 0.3 -0.3 l2.64 0 z M31.583000000000002 19.66 c0.07 0.2 -0.02 0.34 -0.24 0.34 l-2.74 0 c-0.16 0 -0.28 -0.06 -0.34 -0.24 l-0.64 -1.94 l-5.01 0 l-0.64 1.94 c-0.05 0.18 -0.18 0.24 -0.34 0.24 l-2.74 0 c-0.22 0 -0.31 -0.14 -0.24 -0.34 l4.9 -13.42 c0.06 -0.16 0.18 -0.24 0.34 -0.24 l2.4 0 c0.16 0 0.33 0.08 0.39 0.24 z M23.523000000000003 15.09 l3.2 0 l-1.6 -4.84 z M48.036 6 c0.18 0 0.3 0.12 0.3 0.3 l0 13.4 c0 0.18 -0.12 0.3 -0.3 0.3 l-2.96 0 c-0.16 0 -0.28 -0.06 -0.36 -0.2 l-4.77 -8.57 l0 8.47 c0 0.18 -0.12 0.3 -0.3 0.3 l-2.63 0 c-0.18 0 -0.3 -0.12 -0.3 -0.3 l0 -13.4 c0 -0.18 0.12 -0.3 0.3 -0.3 l2.95 0 c0.16 0 0.28 0.06 0.36 0.2 l4.77 8.56 l0 -8.46 c0 -0.18 0.12 -0.3 0.3 -0.3 l2.64 0 z M58.959 6 c4.78 0 7.35 3.12 7.35 7 s-2.57 7 -7.35 7 l-4.27 0 c-0.18 0 -0.3 -0.12 -0.3 -0.3 l0 -13.4 c0 -0.18 0.12 -0.3 0.3 -0.3 l4.27 0 z M58.959 17.16 c2.71 0 4.07 -1.5 4.07 -4.16 s-1.36 -4.16 -4.07 -4.16 l-1.34 0 l0 8.32 l1.34 0 z M86.152 6 c0.18 0 0.3 0.12 0.3 0.3 l0 13.4 c0 0.18 -0.12 0.3 -0.3 0.3 l-2.63 0 c-0.18 0 -0.3 -0.12 -0.3 -0.3 l0 -6.64 l-2.64 6.69 c-0.06 0.16 -0.2 0.25 -0.36 0.25 l-2.36 0 c-0.16 0 -0.31 -0.09 -0.37 -0.25 l-2.65 -6.72 l0 6.67 c0 0.18 -0.12 0.3 -0.3 0.3 l-2.63 0 c-0.18 0 -0.3 -0.12 -0.3 -0.3 l0 -13.4 c0 -0.18 0.12 -0.3 0.3 -0.3 l2.95 0 c0.16 0 0.3 0.06 0.36 0.2 l3.82 10.06 l3.81 -10.06 c0.06 -0.14 0.2 -0.2 0.36 -0.2 l2.94 0 z M104.51500000000001 19.66 c0.07 0.2 -0.02 0.34 -0.24 0.34 l-2.74 0 c-0.16 0 -0.28 -0.06 -0.34 -0.24 l-0.64 -1.94 l-5.01 0 l-0.64 1.94 c-0.05 0.18 -0.18 0.24 -0.34 0.24 l-2.74 0 c-0.22 0 -0.31 -0.14 -0.24 -0.34 l4.9 -13.42 c0.06 -0.16 0.18 -0.24 0.34 -0.24 l2.4 0 c0.16 0 0.33 0.08 0.39 0.24 z M96.45500000000001 15.09 l3.2 0 l-1.6 -4.84 z M114.218 6 c4.78 0 7.35 3.12 7.35 7 s-2.57 7 -7.35 7 l-4.27 0 c-0.18 0 -0.3 -0.12 -0.3 -0.3 l0 -13.4 c0 -0.18 0.12 -0.3 0.3 -0.3 l4.27 0 z M114.218 17.16 c2.71 0 4.07 -1.5 4.07 -4.16 s-1.36 -4.16 -4.07 -4.16 l-1.34 0 l0 8.32 l1.34 0 z M135.941 17.16 c0.18 0 0.3 0.12 0.3 0.3 l0 2.24 c0 0.18 -0.12 0.3 -0.3 0.3 l-8.77 0 c-0.18 0 -0.3 -0.12 -0.3 -0.3 l0 -13.4 c0 -0.18 0.12 -0.3 0.3 -0.3 l8.75 0 c0.18 0 0.3 0.12 0.3 0.3 l0 2.24 c0 0.18 -0.12 0.3 -0.3 0.3 l-5.82 0 l0 2.69 l5.33 0 c0.18 0 0.3 0.12 0.3 0.3 l0 2.24 c0 0.18 -0.12 0.3 -0.3 0.3 l-5.33 0 l0 2.79 l5.84 0 z M162.697 6 c0.18 0 0.3 0.12 0.3 0.3 l0 7.96 c0 4.29 -2.32 6.03 -5.55 6.03 c-3.2 0 -5.49 -1.67 -5.6 -5.73 c0 -0.2 0.12 -0.3 0.3 -0.3 l2.56 0 c0.18 0 0.3 0.1 0.3 0.3 c0.09 2.09 1.08 2.62 2.44 2.62 c1.33 0 2.32 -0.56 2.32 -2.92 l0 -5.42 l-5.5 0 c-0.18 0 -0.3 -0.12 -0.3 -0.3 l0 -2.24 c0 -0.18 0.12 -0.3 0.3 -0.3 l8.43 0 z M177.87 17.16 c0.18 0 0.3 0.12 0.3 0.3 l0 2.24 c0 0.18 -0.12 0.3 -0.3 0.3 l-8.77 0 c-0.18 0 -0.3 -0.12 -0.3 -0.3 l0 -13.4 c0 -0.18 0.12 -0.3 0.3 -0.3 l8.75 0 c0.18 0 0.3 0.12 0.3 0.3 l0 2.24 c0 0.18 -0.12 0.3 -0.3 0.3 l-5.82 0 l0 2.69 l5.33 0 c0.18 0 0.3 0.12 0.3 0.3 l0 2.24 c0 0.18 -0.12 0.3 -0.3 0.3 l-5.33 0 l0 2.79 l5.84 0 z M201.903 6 c0.22 0 0.29 0.14 0.24 0.34 l-3.56 13.42 c-0.04 0.16 -0.23 0.24 -0.39 0.24 l-2.77 0 c-0.16 0 -0.29 -0.08 -0.34 -0.24 l-2.46 -8.36 l-2.47 8.36 c-0.05 0.16 -0.17 0.24 -0.33 0.24 l-2.78 0 c-0.16 0 -0.34 -0.08 -0.38 -0.24 l-3.52 -13.42 c-0.06 -0.21 0.02 -0.34 0.24 -0.34 l2.74 0 c0.16 0 0.3 0.06 0.34 0.24 l2.15 9.46 l2.44 -9.46 c0.03 -0.11 0.09 -0.17 0.16 -0.21 c0.04 -0.02 0.1 -0.03 0.16 -0.03 l2.5 0 c0.06 0 0.12 0.01 0.16 0.03 c0.07 0.04 0.13 0.1 0.16 0.21 l2.44 9.46 l2.18 -9.46 c0.04 -0.18 0.18 -0.24 0.34 -0.24 l2.75 0 z M216.536 17.16 c0.18 0 0.3 0.12 0.3 0.3 l0 2.24 c0 0.18 -0.12 0.3 -0.3 0.3 l-8.77 0 c-0.18 0 -0.3 -0.12 -0.3 -0.3 l0 -13.4 c0 -0.18 0.12 -0.3 0.3 -0.3 l8.75 0 c0.18 0 0.3 0.12 0.3 0.3 l0 2.24 c0 0.18 -0.12 0.3 -0.3 0.3 l-5.82 0 l0 2.69 l5.33 0 c0.18 0 0.3 0.12 0.3 0.3 l0 2.24 c0 0.18 -0.12 0.3 -0.3 0.3 l-5.33 0 l0 2.79 l5.84 0 z M231.509 17.16 c0.18 0 0.3 0.12 0.3 0.3 l0 2.24 c0 0.18 -0.12 0.3 -0.3 0.3 l-8.67 0 c-0.18 0 -0.3 -0.12 -0.3 -0.3 l0 -13.4 c0 -0.18 0.12 -0.3 0.3 -0.3 l2.63 0 c0.18 0 0.3 0.12 0.3 0.3 l0 10.86 l5.74 0 z M245.552 15.030000000000001 l2.44 4.62 c0.11 0.21 -0.01 0.35 -0.24 0.35 l-2.58 0 c-0.17 0 -0.27 -0.07 -0.35 -0.23 l-2.19 -4.32 l-0.24 0 l-2 0 l0 4.25 c0 0.18 -0.12 0.3 -0.3 0.3 l-2.63 0 c-0.18 0 -0.3 -0.12 -0.3 -0.3 l0 -13.4 c0 -0.18 0.12 -0.3 0.3 -0.3 l4.93 0 c4.41 0 5.73 1.57 5.73 4.72 c0 2.22 -0.65 3.65 -2.57 4.31 z M240.392 8.84 l0 3.77 l2.23 0 c1.59 0 2.41 -0.34 2.41 -1.89 c0 -1.53 -0.82 -1.88 -2.41 -1.88 l-2.23 0 z M265.55499999999995 6 c0.24 0 0.33 0.13 0.2 0.36 l-5.01 8.22 l0 5.12 c0 0.18 -0.12 0.3 -0.3 0.3 l-2.63 0 c-0.18 0 -0.3 -0.12 -0.3 -0.3 l0 -5.16 l-5.02 -8.18 c-0.14 -0.23 -0.04 -0.36 0.2 -0.36 l2.97 0 c0.16 0 0.27 0.06 0.36 0.2 l3.1 5.16 l3.11 -5.16 c0.09 -0.14 0.2 -0.2 0.36 -0.2 l2.96 0 z"/></g><g id="SvgjsG11259" featureKey="sloganFeature-1" transform="matrix(0.44458131550214824,0,0,0.44458131550214824,128.5773302962184,75.40809117653423)" fill="#000"><path d="M19.73 6 c0.22 0 0.29 0.14 0.24 0.34 l-3.56 13.42 c-0.04 0.16 -0.23 0.24 -0.39 0.24 l-2.77 0 c-0.16 0 -0.29 -0.08 -0.34 -0.24 l-2.46 -8.36 l-2.47 8.36 c-0.05 0.16 -0.17 0.24 -0.33 0.24 l-2.78 0 c-0.16 0 -0.34 -0.08 -0.38 -0.24 l-3.52 -13.42 c-0.06 -0.21 0.02 -0.34 0.24 -0.34 l2.74 0 c0.16 0 0.3 0.06 0.34 0.24 l2.15 9.46 l2.44 -9.46 c0.03 -0.11 0.09 -0.17 0.16 -0.21 c0.04 -0.02 0.1 -0.03 0.16 -0.03 l2.5 0 c0.06 0 0.12 0.01 0.16 0.03 c0.07 0.04 0.13 0.1 0.16 0.21 l2.44 9.46 l2.18 -9.46 c0.04 -0.18 0.18 -0.24 0.34 -0.24 l2.75 0 z M43.323 6 c0.22 0 0.29 0.14 0.24 0.34 l-3.56 13.42 c-0.04 0.16 -0.23 0.24 -0.39 0.24 l-2.77 0 c-0.16 0 -0.29 -0.08 -0.34 -0.24 l-2.46 -8.36 l-2.47 8.36 c-0.05 0.16 -0.17 0.24 -0.33 0.24 l-2.78 0 c-0.16 0 -0.34 -0.08 -0.38 -0.24 l-3.52 -13.42 c-0.06 -0.21 0.02 -0.34 0.24 -0.34 l2.74 0 c0.16 0 0.3 0.06 0.34 0.24 l2.15 9.46 l2.44 -9.46 c0.03 -0.11 0.09 -0.17 0.16 -0.21 c0.04 -0.02 0.1 -0.03 0.16 -0.03 l2.5 0 c0.06 0 0.12 0.01 0.16 0.03 c0.07 0.04 0.13 0.1 0.16 0.21 l2.44 9.46 l2.18 -9.46 c0.04 -0.18 0.18 -0.24 0.34 -0.24 l2.75 0 z M66.916 6 c0.22 0 0.29 0.14 0.24 0.34 l-3.56 13.42 c-0.04 0.16 -0.23 0.24 -0.39 0.24 l-2.77 0 c-0.16 0 -0.29 -0.08 -0.34 -0.24 l-2.46 -8.36 l-2.47 8.36 c-0.05 0.16 -0.17 0.24 -0.33 0.24 l-2.78 0 c-0.16 0 -0.34 -0.08 -0.38 -0.24 l-3.52 -13.42 c-0.06 -0.21 0.02 -0.34 0.24 -0.34 l2.74 0 c0.16 0 0.3 0.06 0.34 0.24 l2.15 9.46 l2.44 -9.46 c0.03 -0.11 0.09 -0.17 0.16 -0.21 c0.04 -0.02 0.1 -0.03 0.16 -0.03 l2.5 0 c0.06 0 0.12 0.01 0.16 0.03 c0.07 0.04 0.13 0.1 0.16 0.21 l2.44 9.46 l2.18 -9.46 c0.04 -0.18 0.18 -0.24 0.34 -0.24 l2.75 0 z M74.289 20.26 c-1.19 0 -2.16 -0.97 -2.16 -2.16 c0 -1.18 0.97 -2.15 2.16 -2.15 c1.18 0 2.16 0.97 2.16 2.15 c0 1.19 -0.98 2.16 -2.16 2.16 z M91.222 17.16 c0.18 0 0.3 0.12 0.3 0.3 l0 2.24 c0 0.18 -0.12 0.3 -0.3 0.3 l-8.77 0 c-0.18 0 -0.3 -0.12 -0.3 -0.3 l0 -13.4 c0 -0.18 0.12 -0.3 0.3 -0.3 l8.75 0 c0.18 0 0.3 0.12 0.3 0.3 l0 2.24 c0 0.18 -0.12 0.3 -0.3 0.3 l-5.82 0 l0 2.69 l5.33 0 c0.18 0 0.3 0.12 0.3 0.3 l0 2.24 c0 0.18 -0.12 0.3 -0.3 0.3 l-5.33 0 l0 2.79 l5.84 0 z M107.245 6 c0.18 0 0.3 0.12 0.3 0.3 l0 2.24 c0 0.18 -0.12 0.3 -0.3 0.3 l-3.62 0 l0 10.86 c0 0.18 -0.12 0.3 -0.3 0.3 l-2.63 0 c-0.18 0 -0.3 -0.12 -0.3 -0.3 l0 -10.86 l-3.62 0 c-0.18 0 -0.3 -0.12 -0.3 -0.3 l0 -2.24 c0 -0.18 0.12 -0.3 0.3 -0.3 l10.47 0 z M117.33800000000001 11.53 c2.63 0.49 5.4 1.41 5.4 4.48 c0 2.99 -1.8 4.29 -5.33 4.29 c-3.29 0 -4.91 -1.12 -5.16 -3.92 c-0.02 -0.2 0.1 -0.33 0.28 -0.33 l2.41 0 c0.18 0 0.25 0.11 0.3 0.27 c0.26 0.72 0.9 1.07 2.17 1.07 c1.34 0 2.17 -0.38 2.17 -1.27 c0 -0.93 -0.3 -1.43 -2.24 -1.81 c-2.48 -0.49 -4.88 -1.52 -4.88 -4.34 c0 -2.58 1.57 -4.14 4.88 -4.14 c2.95 0 4.71 1.09 4.98 3.79 c0.02 0.2 -0.1 0.36 -0.28 0.36 l-2.23 0 c-0.18 0 -0.25 -0.14 -0.3 -0.3 c-0.19 -0.58 -0.82 -0.97 -2.12 -0.97 c-1.19 0 -1.79 0.52 -1.79 1.26 c0 0.6 -0.04 1.22 1.74 1.56 z M140.27100000000002 6 c0.24 0 0.33 0.13 0.2 0.36 l-5.01 8.22 l0 5.12 c0 0.18 -0.12 0.3 -0.3 0.3 l-2.63 0 c-0.18 0 -0.3 -0.12 -0.3 -0.3 l0 -5.16 l-5.02 -8.18 c-0.14 -0.23 -0.04 -0.36 0.2 -0.36 l2.97 0 c0.16 0 0.27 0.06 0.36 0.2 l3.1 5.16 l3.11 -5.16 c0.09 -0.14 0.2 -0.2 0.36 -0.2 l2.96 0 z M147.344 20.26 c-1.19 0 -2.16 -0.97 -2.16 -2.16 c0 -1.18 0.97 -2.15 2.16 -2.15 c1.18 0 2.16 0.97 2.16 2.15 c0 1.19 -0.98 2.16 -2.16 2.16 z M165.397 16.02 l1.62 1.75 c0.12 0.14 0.15 0.28 0.01 0.42 c-1.22 1.25 -3.01 2.07 -4.96 2.07 c-4.01 0 -7.26 -3.17 -7.26 -7.2 c0 -4.05 3.25 -7.22 7.26 -7.22 c1.95 0 3.74 0.8 4.96 2.07 c0.14 0.15 0.11 0.28 -0.01 0.42 l-1.62 1.75 c-0.11 0.14 -0.28 0.14 -0.42 0.02 c-0.77 -0.66 -1.74 -1.09 -2.94 -1.09 c-2.18 0 -3.89 1.74 -3.89 4.05 c0 2.29 1.71 4.03 3.89 4.03 c1.2 0 2.17 -0.43 2.94 -1.09 c0.14 -0.12 0.31 -0.12 0.42 0.02 z M179.43 20.26 c-3.96 0 -7.21 -3.2 -7.21 -7.2 c0 -4.02 3.25 -7.22 7.21 -7.22 c3.97 0 7.23 3.2 7.23 7.22 c0 4 -3.26 7.2 -7.23 7.2 z M179.43 17.13 c2.23 0 3.98 -1.79 3.98 -4.07 c0 -2.3 -1.75 -4.09 -3.98 -4.09 c-2.21 0 -3.96 1.79 -3.96 4.09 c0 2.28 1.75 4.07 3.96 4.07 z M206.853 6 c0.18 0 0.3 0.12 0.3 0.3 l0 13.4 c0 0.18 -0.12 0.3 -0.3 0.3 l-2.63 0 c-0.18 0 -0.3 -0.12 -0.3 -0.3 l0 -6.64 l-2.64 6.69 c-0.06 0.16 -0.2 0.25 -0.36 0.25 l-2.36 0 c-0.16 0 -0.31 -0.09 -0.37 -0.25 l-2.65 -6.72 l0 6.67 c0 0.18 -0.12 0.3 -0.3 0.3 l-2.63 0 c-0.18 0 -0.3 -0.12 -0.3 -0.3 l0 -13.4 c0 -0.18 0.12 -0.3 0.3 -0.3 l2.95 0 c0.16 0 0.3 0.06 0.36 0.2 l3.82 10.06 l3.81 -10.06 c0.06 -0.14 0.2 -0.2 0.36 -0.2 l2.94 0 z M223.466 6 c0.22 0 0.32 0.13 0.25 0.33 l-6.88 16.03 c-0.05 0.16 -0.2 0.24 -0.36 0.24 l-2.79 0 c-0.22 0 -0.34 -0.12 -0.24 -0.34 l6.88 -16.01 c0.05 -0.16 0.21 -0.25 0.37 -0.25 l2.77 0 z M241.31900000000002 6 c0.18 0 0.3 0.12 0.3 0.3 l0 13.4 c0 0.18 -0.12 0.3 -0.3 0.3 l-2.96 0 c-0.16 0 -0.28 -0.06 -0.36 -0.2 l-4.77 -8.57 l0 8.47 c0 0.18 -0.12 0.3 -0.3 0.3 l-2.63 0 c-0.18 0 -0.3 -0.12 -0.3 -0.3 l0 -13.4 c0 -0.18 0.12 -0.3 0.3 -0.3 l2.95 0 c0.16 0 0.28 0.06 0.36 0.2 l4.77 8.56 l0 -8.46 c0 -0.18 0.12 -0.3 0.3 -0.3 l2.64 0 z M256.642 17.16 c0.18 0 0.3 0.12 0.3 0.3 l0 2.24 c0 0.18 -0.12 0.3 -0.3 0.3 l-8.67 0 c-0.18 0 -0.3 -0.12 -0.3 -0.3 l0 -13.4 c0 -0.18 0.12 -0.3 0.3 -0.3 l2.63 0 c0.18 0 0.3 0.12 0.3 0.3 l0 10.86 l5.74 0 z M272.555 6 c0.22 0 0.32 0.13 0.25 0.33 l-6.88 16.03 c-0.05 0.16 -0.2 0.24 -0.36 0.24 l-2.79 0 c-0.22 0 -0.34 -0.12 -0.24 -0.34 l6.88 -16.01 c0.05 -0.16 0.21 -0.25 0.37 -0.25 l2.77 0 z M283.57800000000003 11.53 c2.63 0.49 5.4 1.41 5.4 4.48 c0 2.99 -1.8 4.29 -5.33 4.29 c-3.29 0 -4.91 -1.12 -5.16 -3.92 c-0.02 -0.2 0.1 -0.33 0.28 -0.33 l2.41 0 c0.18 0 0.25 0.11 0.3 0.27 c0.26 0.72 0.9 1.07 2.17 1.07 c1.34 0 2.17 -0.38 2.17 -1.27 c0 -0.93 -0.3 -1.43 -2.24 -1.81 c-2.48 -0.49 -4.88 -1.52 -4.88 -4.34 c0 -2.58 1.57 -4.14 4.88 -4.14 c2.95 0 4.71 1.09 4.98 3.79 c0.02 0.2 -0.1 0.36 -0.28 0.36 l-2.23 0 c-0.18 0 -0.25 -0.14 -0.3 -0.3 c-0.19 -0.58 -0.82 -0.97 -2.12 -0.97 c-1.19 0 -1.79 0.52 -1.79 1.26 c0 0.6 -0.04 1.22 1.74 1.56 z M305.9510000000001 6 c0.18 0 0.3 0.12 0.3 0.3 l0 13.4 c0 0.18 -0.12 0.3 -0.3 0.3 l-2.64 0 c-0.18 0 -0.3 -0.12 -0.3 -0.3 l0 -5.33 l-5.35 0 l0 5.33 c0 0.18 -0.12 0.3 -0.3 0.3 l-2.63 0 c-0.18 0 -0.3 -0.12 -0.3 -0.3 l0 -13.4 c0 -0.18 0.12 -0.3 0.3 -0.3 l2.63 0 c0.18 0 0.3 0.12 0.3 0.3 l0 5.23 l5.35 0 l0 -5.23 c0 -0.18 0.12 -0.3 0.3 -0.3 l2.64 0 z M319.11400000000003 20.26 c-3.96 0 -7.21 -3.2 -7.21 -7.2 c0 -4.02 3.25 -7.22 7.21 -7.22 c3.97 0 7.23 3.2 7.23 7.22 c0 4 -3.26 7.2 -7.23 7.2 z M319.11400000000003 17.13 c2.23 0 3.98 -1.79 3.98 -4.07 c0 -2.3 -1.75 -4.09 -3.98 -4.09 c-2.21 0 -3.96 1.79 -3.96 4.09 c0 2.28 1.75 4.07 3.96 4.07 z M337.22700000000003 6 c4.41 0 5.73 1.57 5.73 4.72 c0 3.16 -1.32 4.73 -5.73 4.73 l-2 0 l0 4.25 c0 0.18 -0.12 0.3 -0.3 0.3 l-2.63 0 c-0.18 0 -0.3 -0.12 -0.3 -0.3 l0 -13.4 c0 -0.18 0.12 -0.3 0.3 -0.3 l4.93 0 z M337.45700000000005 12.61 c1.59 0 2.41 -0.34 2.41 -1.89 c0 -1.53 -0.82 -1.88 -2.41 -1.88 l-2.23 0 l0 3.77 l2.23 0 z M358.52 6 c0.22 0 0.32 0.13 0.25 0.33 l-6.88 16.03 c-0.05 0.16 -0.2 0.24 -0.36 0.24 l-2.79 0 c-0.22 0 -0.34 -0.12 -0.24 -0.34 l6.88 -16.01 c0.05 -0.16 0.21 -0.25 0.37 -0.25 l2.77 0 z M375.803 19.64 c0.14 0.2 0.06 0.36 -0.18 0.36 l-3.07 0 c-0.16 0 -0.26 -0.04 -0.36 -0.18 l-3.54 -5.36 l-0.62 0.75 l0 4.49 c0 0.18 -0.12 0.3 -0.3 0.3 l-2.63 0 c-0.18 0 -0.3 -0.12 -0.3 -0.3 l0 -13.4 c0 -0.18 0.12 -0.3 0.3 -0.3 l2.63 0 c0.18 0 0.3 0.12 0.3 0.3 l0 4.59 l3.77 -4.73 c0.1 -0.12 0.22 -0.16 0.36 -0.16 l3.13 0 c0.26 0 0.31 0.18 0.16 0.36 l-4.72 5.62 z M392.936 19.66 c0.07 0.2 -0.02 0.34 -0.24 0.34 l-2.74 0 c-0.16 0 -0.28 -0.06 -0.34 -0.24 l-0.64 -1.94 l-5.01 0 l-0.64 1.94 c-0.05 0.18 -0.18 0.24 -0.34 0.24 l-2.74 0 c-0.22 0 -0.31 -0.14 -0.24 -0.34 l4.9 -13.42 c0.06 -0.16 0.18 -0.24 0.34 -0.24 l2.4 0 c0.16 0 0.33 0.08 0.39 0.24 z M384.876 15.09 l3.2 0 l-1.6 -4.84 z M402.639 6 c4.78 0 7.35 3.12 7.35 7 s-2.57 7 -7.35 7 l-4.27 0 c-0.18 0 -0.3 -0.12 -0.3 -0.3 l0 -13.4 c0 -0.18 0.12 -0.3 0.3 -0.3 l4.27 0 z M402.639 17.16 c2.71 0 4.07 -1.5 4.07 -4.16 s-1.36 -4.16 -4.07 -4.16 l-1.34 0 l0 8.32 l1.34 0 z M424.362 17.16 c0.18 0 0.3 0.12 0.3 0.3 l0 2.24 c0 0.18 -0.12 0.3 -0.3 0.3 l-8.77 0 c-0.18 0 -0.3 -0.12 -0.3 -0.3 l0 -13.4 c0 -0.18 0.12 -0.3 0.3 -0.3 l8.75 0 c0.18 0 0.3 0.12 0.3 0.3 l0 2.24 c0 0.18 -0.12 0.3 -0.3 0.3 l-5.82 0 l0 2.69 l5.33 0 c0.18 0 0.3 0.12 0.3 0.3 l0 2.24 c0 0.18 -0.12 0.3 -0.3 0.3 l-5.33 0 l0 2.79 l5.84 0 z M434.855 11.53 c2.63 0.49 5.4 1.41 5.4 4.48 c0 2.99 -1.8 4.29 -5.33 4.29 c-3.29 0 -4.91 -1.12 -5.16 -3.92 c-0.02 -0.2 0.1 -0.33 0.28 -0.33 l2.41 0 c0.18 0 0.25 0.11 0.3 0.27 c0.26 0.72 0.9 1.07 2.17 1.07 c1.34 0 2.17 -0.38 2.17 -1.27 c0 -0.93 -0.3 -1.43 -2.24 -1.81 c-2.48 -0.49 -4.88 -1.52 -4.88 -4.34 c0 -2.58 1.57 -4.14 4.88 -4.14 c2.95 0 4.71 1.09 4.98 3.79 c0.02 0.2 -0.1 0.36 -0.28 0.36 l-2.23 0 c-0.18 0 -0.25 -0.14 -0.3 -0.3 c-0.19 -0.58 -0.82 -0.97 -2.12 -0.97 c-1.19 0 -1.79 0.52 -1.79 1.26 c0 0.6 -0.04 1.22 1.74 1.56 z M455.32800000000003 8.84 l-3.17 0 l0 8.32 l3.17 0 c0.18 0 0.3 0.12 0.3 0.3 l0 2.24 c0 0.18 -0.12 0.3 -0.3 0.3 l-9.57 0 c-0.18 0 -0.3 -0.12 -0.3 -0.3 l0 -2.24 c0 -0.18 0.12 -0.3 0.3 -0.3 l3.17 0 l0 -8.32 l-3.17 0 c-0.18 0 -0.3 -0.12 -0.3 -0.3 l0 -2.24 c0 -0.18 0.12 -0.3 0.3 -0.3 l9.57 0 c0.18 0 0.3 0.12 0.3 0.3 l0 2.24 c0 0.18 -0.12 0.3 -0.3 0.3 z M474.35100000000006 11.94 c0.18 0 0.3 0.12 0.3 0.3 l0 1.43 c0 3.58 -2.31 6.59 -6.29 6.59 c-4.01 0 -7.33 -3.22 -7.33 -7.23 c0 -4.02 3.25 -7.19 7.26 -7.19 c1.95 0 3.74 0.8 4.96 2.07 c0.14 0.15 0.11 0.28 -0.01 0.42 l-1.62 1.75 c-0.11 0.14 -0.28 0.14 -0.42 0.02 c-0.77 -0.66 -1.74 -1.09 -2.94 -1.09 c-2.18 0 -3.89 1.74 -3.89 4.02 s1.61 4.06 3.96 4.06 c2.05 0 3.07 -1.19 3.13 -2.47 l-3.04 0 c-0.18 0 -0.3 -0.12 -0.3 -0.3 l0 -2.08 c0 -0.18 0.12 -0.3 0.3 -0.3 l5.93 0 z M491.624 6 c0.18 0 0.3 0.12 0.3 0.3 l0 13.4 c0 0.18 -0.12 0.3 -0.3 0.3 l-2.96 0 c-0.16 0 -0.28 -0.06 -0.36 -0.2 l-4.77 -8.57 l0 8.47 c0 0.18 -0.12 0.3 -0.3 0.3 l-2.63 0 c-0.18 0 -0.3 -0.12 -0.3 -0.3 l0 -13.4 c0 -0.18 0.12 -0.3 0.3 -0.3 l2.95 0 c0.16 0 0.28 0.06 0.36 0.2 l4.77 8.56 l0 -8.46 c0 -0.18 0.12 -0.3 0.3 -0.3 l2.64 0 z M505.22700000000003 12.530000000000001 c1.81 0.34 2.84 1.53 2.84 3.44 c0 2.71 -1.41 4.03 -5.13 4.03 l-4.91 0 c-0.18 0 -0.3 -0.12 -0.3 -0.3 l0 -13.4 c0 -0.18 0.12 -0.3 0.3 -0.3 l5.14 0 c2.91 0 4.17 1.61 4.17 3.64 c0 1.47 -0.75 2.52 -2.11 2.89 z M504.33700000000005 10.06 c0 -0.92 -0.42 -1.22 -1.47 -1.22 l-1.91 0 l0 2.54 l1.87 0 c1.12 0 1.51 -0.35 1.51 -1.32 z M503.06700000000006 17.16 c1.27 0 1.78 -0.52 1.78 -1.55 c0 -1.16 -0.59 -1.57 -1.81 -1.57 l-2.08 0 l0 3.12 l2.11 0 z M522.49 17.16 c0.18 0 0.3 0.12 0.3 0.3 l0 2.24 c0 0.18 -0.12 0.3 -0.3 0.3 l-8.77 0 c-0.18 0 -0.3 -0.12 -0.3 -0.3 l0 -13.4 c0 -0.18 0.12 -0.3 0.3 -0.3 l8.75 0 c0.18 0 0.3 0.12 0.3 0.3 l0 2.24 c0 0.18 -0.12 0.3 -0.3 0.3 l-5.82 0 l0 2.69 l5.33 0 c0.18 0 0.3 0.12 0.3 0.3 l0 2.24 c0 0.18 -0.12 0.3 -0.3 0.3 l-5.33 0 l0 2.79 l5.84 0 z"/></g>
			</g>
		</svg>
	